# xmcd CD database file
#
# Track frame offsets:
#	150
#	17919
#	36566
#	47677
#	63472
#	81623
#	98312
#	111412
#	131939
#	147423
#	162587
#	179250
#	189830
#	206992
#
# Disc length: 2956 seconds
#
# Revision: 1
# Processed by: cddbd v1.5.2PL0 Copyright (c) Steve Scherf et al.
# Submitted via: CDex 1.70beta2
#
DISCID=d50b8a0e
DTITLE=Skye - Impressionnable
DYEAR=2003
DGENRE=New Age
TTITLE0=Je traine un peu dehors
TTITLE1=Clara
TTITLE2=Antoine et Zoé
TTITLE3=Volo
TTITLE4=Amis d'hier
TTITLE5=Kilomètres
TTITLE6=Ma préférée
TTITLE7=Manhattan
TTITLE8=Le monde est so
TTITLE9=C'est évident c'est beau
TTITLE10=C'est fou
TTITLE11=Deux écorchés
TTITLE12=La vie sous Marine
TTITLE13=Alona
EXTD=YEAR: 2003
EXTT0=
EXTT1=
EXTT2=
EXTT3=
EXTT4=
EXTT5=
EXTT6=
EXTT7=
EXTT8=
EXTT9=
EXTT10=
EXTT11=
EXTT12=
EXTT13=
PLAYORDER=
